<?xml version="1.0" encoding="UTF-8" standalone="no"?>
<svg
   width="30.48mm"
   height="128.5mm"
   viewBox="0 0 120.00137 505.90399"
   version="1.1"
   id="svg4996"
   sodipodi:docname="E325BCE.svg"
   inkscape:version="1.2.2 (b0a8486541, 2022-12-01)"
   xmlns:inkscape="http://www.inkscape.org/namespaces/inkscape"
   xmlns:sodipodi="http://sodipodi.sourceforge.net/DTD/sodipodi-0.dtd"
   xmlns="http://www.w3.org/2000/svg"
   xmlns:svg="http://www.w3.org/2000/svg">
  <defs
     id="defs5000" />
  <sodipodi:namedview
     id="namedview4998"
     pagecolor="#ffffff"
     bordercolor="#000000"
     borderopacity="0.25"
     inkscape:showpageshadow="2"
     inkscape:pageopacity="0.0"
     inkscape:pagecheckerboard="0"
     inkscape:deskcolor="#d1d1d1"
     inkscape:document-units="mm"
     showgrid="false"
     inkscape:zoom="6.3622645"
     inkscape:cx="63.577991"
     inkscape:cy="160.08451"
     inkscape:window-width="1846"
     inkscape:window-height="1016"
     inkscape:window-x="74"
     inkscape:window-y="27"
     inkscape:window-maximized="1"
     inkscape:current-layer="layer4" />
  <title
     id="title4940" />
  <style
     type="text/css"
     id="style4942">
*[layerid=&quot;1&quot;] {stroke:#000000;fill:#000000;}
*[layerid=&quot;2&quot;] {stroke:#000000;fill:#000000;}
*[layerid=&quot;3&quot;] {stroke:#000000;fill:#000000;}
*[layerid=&quot;4&quot;] {stroke:#000000;fill:#000000;}
*[layerid=&quot;5&quot;] {stroke:#000000;fill:#000000;}
*[layerid=&quot;6&quot;] {stroke:#000000;fill:#000000;}
*[layerid=&quot;7&quot;] {stroke:#000000;fill:#000000;}
*[layerid=&quot;8&quot;] {stroke:#000000;fill:#000000;}
*[layerid=&quot;9&quot;] {stroke:#000000;fill:#000000;}
*[layerid=&quot;10&quot;] {stroke:#000000;fill:#000000;}
*[layerid=&quot;11&quot;] {stroke:#000000;fill:#000000;}
*[layerid=&quot;12&quot;] {stroke:#000000;fill:#000000;}
*[layerid=&quot;13&quot;] {stroke:#000000;fill:#000000;}
*[layerid=&quot;14&quot;] {stroke:#000000;fill:#000000;}
*[layerid=&quot;15&quot;] {stroke:#000000;fill:#000000;}
*[layerid=&quot;19&quot;] {stroke:#000000;fill:#000000;}
*[layerid=&quot;21&quot;] {stroke:#000000;fill:#000000;}
*[layerid=&quot;22&quot;] {stroke:#000000;fill:#000000;}
*[layerid=&quot;23&quot;] {stroke:#000000;fill:#000000;}
*[layerid=&quot;24&quot;] {stroke:#000000;fill:#000000;}
*[layerid=&quot;25&quot;] {stroke:#000000;fill:#000000;}
*[layerid=&quot;26&quot;] {stroke:#000000;fill:#000000;}
*[layerid=&quot;27&quot;] {stroke:#000000;fill:#000000;}
*[layerid=&quot;28&quot;] {stroke:#000000;fill:#000000;}
*[layerid=&quot;29&quot;] {stroke:#000000;fill:#000000;}
*[layerid=&quot;30&quot;] {stroke:#000000;fill:#000000;}
*[layerid=&quot;31&quot;] {stroke:#000000;fill:#000000;}
*[layerid=&quot;32&quot;] {stroke:#000000;fill:#000000;}
*[layerid=&quot;33&quot;] {stroke:#000000;fill:#000000;}
*[layerid=&quot;34&quot;] {stroke:#000000;fill:#000000;}
*[layerid=&quot;35&quot;] {stroke:#000000;fill:#000000;}
*[layerid=&quot;36&quot;] {stroke:#000000;fill:#000000;}
*[layerid=&quot;37&quot;] {stroke:#000000;fill:#000000;}
*[layerid=&quot;38&quot;] {stroke:#000000;fill:#000000;}
*[layerid=&quot;39&quot;] {stroke:#000000;fill:#000000;}
*[layerid=&quot;40&quot;] {stroke:#000000;fill:#000000;}
*[layerid=&quot;41&quot;] {stroke:#000000;fill:#000000;}
*[layerid=&quot;42&quot;] {stroke:#000000;fill:#000000;}
*[layerid=&quot;43&quot;] {stroke:#000000;fill:#000000;}
*[layerid=&quot;44&quot;] {stroke:#000000;fill:#000000;}
*[layerid=&quot;45&quot;] {stroke:#000000;fill:#000000;}
*[layerid=&quot;46&quot;] {stroke:#000000;fill:#000000;}
*[layerid=&quot;47&quot;] {stroke:#000000;fill:#000000;}
*[layerid=&quot;48&quot;] {stroke:#000000;fill:#000000;}
*[layerid=&quot;49&quot;] {stroke:#000000;fill:#000000;}
*[layerid=&quot;50&quot;] {stroke:#000000;fill:#000000;}
*[layerid=&quot;51&quot;] {stroke:#000000;fill:#000000;}
*[layerid=&quot;52&quot;] {stroke:#000000;fill:#000000;}
*[layerid=&quot;99&quot;] {stroke:#000000;fill:#000000;}
*[layerid=&quot;100&quot;] {stroke:#000000;fill:#000000;}
*[layerid=&quot;101&quot;] {stroke:#000000;fill:#000000;}
*[layerid=&quot;Hole&quot;] {stroke:#000000;fill:#000000;}
*[layerid=&quot;DRCError&quot;] {stroke:#000000;fill:#000000;}
*[fill=&quot;none&quot;] {fill: none;}
*[stroke=&quot;none&quot;] {stroke: none;}
path, polyline, polygon, line {stroke-linecap:round;}
g[c_partid=&quot;part_pad&quot;][layerid=&quot;1&quot;] ellipse:not([c_etype=&quot;pad_outer&quot;]) {fill:#000000;}
g[c_partid=&quot;part_pad&quot;][layerid=&quot;1&quot;] polygon:not([c_etype=&quot;pad_outer&quot;]) {fill:#000000;}
g[c_partid=&quot;part_pad&quot;][layerid=&quot;1&quot;] polyline:not([c_etype=&quot;pad_outer&quot;]) {stroke:#000000;}
g[c_partid=&quot;part_pad&quot;][layerid=&quot;2&quot;] ellipse:not([c_etype=&quot;pad_outer&quot;]) {fill:#000000;}
g[c_partid=&quot;part_pad&quot;][layerid=&quot;2&quot;] polygon:not([c_etype=&quot;pad_outer&quot;]) {fill:#000000;}
g[c_partid=&quot;part_pad&quot;][layerid=&quot;2&quot;] polyline:not([c_etype=&quot;pad_outer&quot;]) {stroke:#000000;}
g[c_partid=&quot;part_pad&quot;][layerid=&quot;11&quot;] ellipse:not([c_etype=&quot;pad_outer&quot;]) {fill:#000000;}
g[c_partid=&quot;part_pad&quot;][layerid=&quot;11&quot;] polygon:not([c_etype=&quot;pad_outer&quot;]) {fill:#000000;}
g[c_partid=&quot;part_pad&quot;][layerid=&quot;11&quot;] polyline:not([c_etype=&quot;pad_outer&quot;]) {stroke:#000000;}
g[c_partid=&quot;part_pad&quot;][layerid=&quot;11&quot;] circle {fill:#FFFFFF;}
g[c_partid=&quot;part_pad&quot;][layerid=&quot;11&quot;] &gt; polyline:nth-of-type(2) {stroke:#FFFFFF;}
g[c_partid=&quot;part_pad&quot;][layerid=&quot;11&quot;][c_shape=&quot;ELLIPSE&quot;]  polyline:nth-last-of-type(1) {stroke:#FFFFFF;}
g[c_partid=&quot;part_pad&quot;][layerid=&quot;11&quot;][c_shape=&quot;RECT&quot;]  polyline:nth-last-of-type(1) {stroke:#FFFFFF;}
g[c_partid=&quot;part_pad&quot;][layerid=&quot;11&quot;][c_shape=&quot;POLYGON&quot;]  polyline:nth-last-of-type(1) {stroke:#FFFFFF;}
g[c_partid=&quot;part_via&quot;] &gt; * + circle, #gCurParts g[c_partid=&quot;part_via&quot;] &gt; * + circle {fill:#FFFFFF;}
g[c_partid=&quot;part_pad&quot;] &gt; polygon[c_etype=&quot;pad_outer&quot;], #gCurParts g[c_partid=&quot;part_pad&quot;] &gt; polygon[c_etype=&quot;pad_outer&quot;] {stroke-linejoin: round;stroke-miterlimit: 100;}
g[c_partid=&quot;part_hole&quot;] &gt; circle {fill: #FFFFFF;}path, polyline, polygon {stroke-linejoin:round;}
rect, circle, ellipse, polyline, line, polygon, path {shape-rendering:crispEdges;}
</style>
  <g
     inkscape:groupmode="layer"
     id="layer4"
     inkscape:label="Layer 1"
     style="display:inline">
    <rect
       style="fill:#000000;stroke-width:0.430874"
       id="rect848"
       width="120.00137"
       height="505.91132"
       x="-9.5715234e-07"
       y="-0.0036575773"
       ry="0.82729346" />
    <g
       id="text7205-6"
       style="font-weight:bold;font-size:5.41867px;font-family:Moltors;-inkscape-font-specification:'Moltors Bold';text-align:center;text-anchor:middle;display:inline;stroke-width:10.24" />
    <path
       id="path4657"
       style="color:#000000;fill:#ffffff;stroke-linejoin:round;-inkscape-stroke:none;shape-rendering:crispEdges"
       d="m 118.94895,254.26662 c -25.407571,8.25022 -40.750791,44.28557 -40.750791,44.28557 l 10.805055,-2.36744 c 0,0 8.925425,-28.49 30.309416,-35.4337 z m -25.773041,38.30865 c -7.502992,-0.60691 -16.495596,2.5151 -25.796874,11.53516 -7.250543,7.03132 -7.501917,7.92043 -9.088688,9.17902 -0.793385,0.62929 -3.727285,2.61134 -5.004105,2.90582 -1.276821,0.29447 -3.250975,1.35093 -6.420879,1.73351 -5.457628,0.65869 -7.591774,-1.05205 -10.826172,-4.13867 -3.234399,-3.08662 -7.030183,-7.68119 -13.861328,-10.5625 -3.692165,-1.55731 -7.315936,-1.50479 -10.28711,-0.42383 -2.9711728,1.08096 -5.2837698,3.04549 -7.0761708,5.07422 -3.584802,4.05746 -3.533548,6.10205 -3.533548,6.10205 l 0.06352,8.09437 c 0,0 5.178882,-7.2111 7.895812,-10.28626 1.3584648,-1.53758 2.9656968,-2.81428 4.6679688,-3.43359 1.702271,-0.61932 3.505985,-0.72679 5.974609,0.31445 5.490433,2.31581 8.462938,5.94266 12.080078,9.39453 3.61714,3.45187 9.2993,7.37835 16.49121,6.51036 3.154867,-0.38077 4.941067,-1.70731 6.780232,-2.13148 1.839165,-0.42416 2.913665,-0.84974 4.30473,-1.9531 2.782129,-2.20672 4.895454,-5.29628 11.951172,-12.13867 11.298162,-10.95657 20.006603,-11.40164 26.236323,-8.61523 6.229721,2.7864 10.119911,9.73759 10.257811,13.9414 0.17665,5.38468 2.11081,8.81421 4.36329,10.58399 2.25247,1.76977 6.10279,3.93758 6.10279,3.93758 l 0.28721,-8.78862 c 0,0 -1.95319,0.82586 -2.74148,0.2065 -0.78828,-0.61935 -1.97273,-1.96741 -2.10937,-6.13281 -0.2336,-7.12065 -5.24465,-15.33531 -13.74805,-19.13867 -2.125851,-0.95084 -4.461891,-1.56723 -6.962891,-1.76953 z M 6.8435472,397.09603 c -2.040701,0.0397 -4.130888,0.19854 -6.27448506,0.48014 l 0.1220717,5.94489 c 15.49745016,-2.03586 27.89355516,2.81601 37.41497516,11.5724 7.753252,7.13029 13.87435,16.8968 18.646452,27.3522 -0.728919,1.68771 -1.423597,3.38509 -2.085391,5.08429 -10.609817,27.24133 -12.968084,55.79694 -12.968084,55.79694 l 6.001859,0.0448 c 0,0 2.238891,-27.16002 12.298723,-53.23954 10.060051,26.07973 12.298724,53.23954 12.298724,53.23954 l 6.003893,-0.0448 c 0,0 -2.358267,-28.55561 -12.968083,-55.79694 -0.662021,-1.69978 -1.356199,-3.39805 -2.085392,-5.08632 4.771968,-10.45461 10.893715,-20.22035 18.646452,-27.35017 9.521417,-8.75639 21.917518,-13.60826 37.414978,-11.5724 l 0.12207,-5.94489 c -2.1436,-0.2816 -4.23582,-0.44044 -6.27652,-0.48014 -14.284911,-0.27781 -26.045539,5.17909 -35.258376,13.65168 -7.401771,6.80705 -13.230442,15.50317 -17.897746,24.79276 C 55.332433,426.25119 49.505509,417.55456 42.103957,410.74771 32.891121,402.27512 21.128458,396.81822 6.8435472,397.09603 Z M 114.58625,496.5343 h -2.64822 q -1.01855,0 -1.01855,1.01855 v 2.85193 h 1.22226 v -1.21717 h 1.21716 v 1.72644 h 1.22735 z m -2.44451,1.63477 v -0.2088 q 0,-0.40742 0.40741,-0.40742 h 0.81484 v 0.61622 z m -1.62458,2.23571 h -2.84684 q -1.01854,0 -1.01854,-1.01855 v -2.85193 h 3.86538 v 1.01855 h -2.64313 v 0.40742 h 2.64313 v 1.01854 h -2.64313 v 0.2088 q 0,0.19862 0.20371,0.19862 h 2.43942 z m -8.13818,0 h 2.85702 q 1.00837,0 1.00837,-1.01855 v -3.42741 h -1.21717 v 3.01999 q 0,0.40742 -0.40742,0.40742 h -2.2408 z M 110.2252,28.125929 q 0.0313,-0.63441 0.47776,-1.27665 0.4621,-0.66573 0.97902,-1.0965 0.53259,-0.4621 1.22182,-0.74406 0.6814,-0.2428 1.45679,-0.39161 0.77538,-0.14881 1.65258,-0.1958 v 1.56643 q -0.047,-0.0157 -0.094,-0.0157 h -0.13315 q -0.1958,0 -0.50126,0.0392 -0.29762,0.0313 -0.72839,0.10182 -1.04951,0.1958 -1.04951,0.40727 0,0.0392 0.008,0.047 h 1.25315 q 1.26881,0 1.26881,0.9477 v 1.7544 q -0.008,1.10434 -1.3158,1.10434 h -4.62099 v -1.5586 h 3.91609 v -0.68923 z m -2.66293,3.03105 v -4.55833 q 0,-0.62657 -0.62657,-0.62657 h -1.26098 v 4.40951 h -1.87189 v -5.97594 h 4.07273 q 1.56643,0 1.56643,1.56643 v 5.1849 z m -6.26573,-4.22154 v -0.32112 q 0,-0.62658 -0.62657,-0.62658 h -1.253151 v 0.9477 z m -1.425451,1.58993 h -0.4621 v 1.85622 h -1.87189 v -5.96028 h 4.072731 q 1.5821,0 1.5821,1.56643 v 1.04951 q -0.0313,1.46462 -1.37846,1.46462 l 1.86405,2.65511 h -1.94238 z m -2.96055,-4.10406 h -4.37818 q -1.56644,0 -1.56644,1.56643 v 4.38602 h 5.94462 v -1.56643 h -4.0649 v -0.62658 h 4.0649 v -1.56643 h -4.0649 v -0.31329 q 0,-0.31329 0.31329,-0.31329 h 3.75161 z m -6.571183,1.56643 v -1.56643 h -5.639163 v 1.56643 h 1.887553 v 5.16924 h 1.871889 v -5.16924 z m -6.26573,0 v -1.56643 h -5.639163 v 1.56643 h 1.887553 v 5.16924 h 1.871889 v -5.16924 z m -6.273561,-1.56643 h -4.072729 q -1.566434,0 -1.566434,1.56643 v 4.38602 h 1.879721 v -1.87189 h 1.887553 v 1.87972 h 1.871889 z m -3.759442,2.51413 v -0.32112 q 0,-0.62658 0.626574,-0.62658 h 1.253147 v 0.9477 z m -8.14545,-2.52196 v 5.96811 h 1.879721 v -1.87972 h 2.216504 q 1.535106,0 1.535106,-1.54294 v -1.01818 q 0,-1.5351 -1.535106,-1.5351 z m 3.767274,2.52196 h -1.879721 v -0.9477 h 1.253147 q 0.626574,0 0.626574,0.62658 z m 46.182323,-6.19525 v -4.55832 q 0,-0.62658 -0.62658,-0.62658 h -1.26098 v 4.40951 h -1.87189 v -5.97594 h 4.07273 q 1.56644,0 1.56644,1.56643 v 5.1849 z m -4.39384,-6.73567 h -4.07273 q -1.56644,0 -1.56644,1.56644 v 4.38601 h 1.87972 v -1.87189 h 1.88756 v 1.87972 h 1.87189 z m -3.75945,2.51413 v -0.32112 q 0,-0.62657 0.62658,-0.62657 h 1.25315 v 0.94769 z m -2.49844,-2.51413 h -4.37819 q -1.566431,0 -1.566431,1.56644 v 4.38601 h 5.944621 v -1.56643 h -4.0649 v -0.62658 h 4.0649 v -1.56643 h -4.0649 v -0.31329 q 0,-0.31328 0.31329,-0.31328 h 3.75161 z m -12.515801,5.95245 h 4.39385 q 1.55077,0 1.55077,-1.56643 v -1.56644 q 0,-2.81958 -3.12504,-2.81958 h -2.81958 z m 1.89538,-4.40168 0.9242,0.0157 q 0.62657,0.0235 0.93986,0.32895 0.31329,0.29762 0.31329,0.92419 v 0.93986 q 0,0.62658 -0.62658,0.62658 h -1.55077 z m -4.401668,4.40168 h 1.879718 v -5.95245 h -1.879718 z m -0.62656,0 v -1.56643 h -3.438323 q -0.626574,0 -0.626574,-0.62658 v -3.75161 h -1.879721 v 4.37819 q 0,1.56643 1.566434,1.56643 z m -6.571178,0 H 78.59503 q -1.566435,0 -1.566435,-1.56643 v -1.56644 q 0,-2.81958 3.132869,-2.81958 h 2.811749 v 1.56644 h -2.811749 q -1.253148,0 -1.253148,1.25314 v 0.93986 q 0,0.61875 0.603078,0.61875 h 3.461819 z m -10.330625,-5.94462 v 3.75945 q 0,0.62657 0.626573,0.62657 h 1.26098 v -4.40951 h 1.871889 v 5.97594 h -4.072729 q -1.566435,0 -1.566435,-1.56643 v -4.38602 z m -2.506282,-0.008 h -4.378184 q -1.566434,0 -1.566434,1.56644 v 4.38601 h 5.944618 v -1.56643 h -4.064897 v -0.62658 h 4.064897 v -1.56643 h -4.064897 v -0.31329 q 0,-0.31328 0.313287,-0.31328 h 3.75161 z M 38.701958,470.68102 v -1.01855 h -3.666769 v 1.01855 h 1.227349 v 3.36121 h 1.217164 v -3.36121 z m -6.518695,-1.01345 v 2.44451 q 0,0.40742 0.407419,0.40742 h 0.81993 v -2.86721 h 1.217164 v 3.88576 h -2.648222 q -1.018547,0 -1.018547,-1.01855 v -2.85193 z m -2.953781,3.87048 q 1.30374,-0.0662 1.334297,-1.00327 v -1.87413 q -0.0051,-0.99818 -1.334297,-0.99818 h -1.324111 q -1.415781,0 -1.415781,1.01855 v 1.87922 q -0.02546,0.97271 1.39541,0.97271 z m -0.244451,-2.84175 q 0.351398,0 0.351398,0.39214 v 1.02873 q 0,0.38705 -0.402326,0.41761 l -0.825023,0.005 q -0.417604,-0.0102 -0.417604,-0.36668 v -1.10512 q 0.02546,-0.36159 0.407419,-0.38705 h 0.825023 z m -7.292781,2.20006 0.04074,-0.0458 0.351398,0.67224 h 1.278277 l -1.140773,-2.12876 1.487079,-2.30701 h -1.262998 l -0.875951,1.28337 -0.37177,-0.70789 h -1.278276 l 1.145865,2.13385 -1.492171,2.2459 h 1.30374 z m -4.848279,-3.22879 v 2.44451 q 0,0.40742 0.407419,0.40742 h 0.814837 v -3.42232 h 1.222257 v 4.44087 h -2.648222 q -1.018547,0 -1.018547,-1.01855 v -2.85193 z m -1.634763,-0.005 h -2.648222 q -1.018547,0 -1.018547,1.01854 v 2.85193 h 1.222256 v -1.21716 h 1.217164 v 1.72644 h 1.227349 z m -2.444513,1.63476 v -0.2088 q 0,-0.40742 0.407419,-0.40742 h 0.814838 v 0.61622 z m 99.601355,-0.89887 v -1.01855 h -3.66677 v 1.01855 h 1.22735 v 3.3612 h 1.21717 v -3.3612 z m -6.51869,-1.01345 v 2.44451 q 0,0.40742 0.40742,0.40742 h 0.81993 v -2.86721 h 1.21716 v 3.88575 h -2.64822 q -1.01855,0 -1.01855,-1.01854 v -2.85193 z m -2.95378,3.87047 q 1.30374,-0.0662 1.3343,-1.00327 v -1.87412 q -0.005,-0.99818 -1.3343,-0.99818 h -1.32411 q -1.41578,0 -1.41578,1.01855 v 1.87922 q -0.0255,0.97271 1.39541,0.97271 z m -0.24445,-2.84174 q 0.3514,0 0.3514,0.39214 v 1.02873 q 0,0.38705 -0.40233,0.4176 l -0.82502,0.005 q -0.41761,-0.0102 -0.41761,-0.36667 v -1.10513 q 0.0255,-0.36158 0.40742,-0.38704 h 0.82503 z m -5.622361,-1.03383 h -2.84684 q -1.01855,0 -1.01855,1.01855 v 2.85193 h 3.86539 v -1.01855 h -2.64313 v -0.40741 h 2.64313 v -1.01855 h -2.64313 v -0.20371 q 0,-0.20371 0.20371,-0.20371 h 2.43942 z m -8.03633,2.40887 q 0.02037,-0.41252 0.310657,-0.83012 0.300471,-0.43288 0.636592,-0.71298 0.346306,-0.30047 0.794467,-0.48381 0.443064,-0.15788 0.947244,-0.25464 0.50419,-0.0968 1.07457,-0.12732 v 1.01855 q -0.0306,-0.0102 -0.0611,-0.0102 h -0.0866 q -0.12732,0 -0.32593,0.0255 -0.19353,0.0204 -0.47363,0.0662 -0.68242,0.12732 -0.68242,0.26482 0,0.0255 0.005,0.0306 h 0.81483 q 0.82503,0 0.82503,0.61622 v 1.14078 q -0.005,0.71807 -0.85558,0.71807 H 88.908851 V 472.237 h 2.546368 v -0.44816 z m -0.509264,1.46161 v -1.01855 h -2.235711 q -0.407419,0 -0.407419,-0.40741 v -2.43942 h -1.222256 v 2.84683 q 0,1.01855 1.018547,1.01855 z m -6.717313,-3.86538 v 2.44451 q 0,0.40742 0.407419,0.40742 h 0.81993 v -2.86721 h 1.217164 v 3.88575 h -2.648222 q -1.018547,0 -1.018547,-1.01854 v -2.85193 z m -5.301532,-0.0102 v 3.88066 h 1.222257 v -1.22226 h 1.441244 q 0.998176,0 0.998176,-1.00327 v -0.66205 q 0,-0.99818 -0.998176,-0.99818 z m 2.449606,1.63986 h -1.222257 v -0.61622 h 0.814838 q 0.407419,0 0.407419,0.40741 z m 34.624424,-123.4051 v -1.06723 h -3.84203 v 1.06723 h 1.28601 v 3.52187 h 1.27534 v -3.52187 z m -4.26892,-1.06723 h -2.98291 q -1.06723,0 -1.06723,1.06723 v 2.98825 h 4.05014 v -1.06723 h -2.76946 v -0.42689 h 2.76946 v -1.06723 h -2.76946 v -0.21345 q 0,-0.21345 0.21344,-0.21345 h 2.55602 z m -8.42044,2.524 q 0.0213,-0.43222 0.3255,-0.86979 0.31484,-0.45357 0.66702,-0.74706 0.36286,-0.31483 0.83244,-0.50694 0.46425,-0.16542 0.99253,-0.2668 0.52828,-0.10139 1.12593,-0.13341 v 1.06723 q -0.032,-0.0107 -0.064,-0.0107 h -0.0907 q -0.1334,0 -0.34151,0.0267 -0.20278,0.0214 -0.49627,0.0694 -0.71504,0.13341 -0.71504,0.27748 0,0.0267 0.005,0.032 h 0.85379 q 0.86446,0 0.86446,0.64567 v 1.1953 q -0.005,0.7524 -0.89648,0.7524 h -3.14833 v -1.06189 h 2.66808 v -0.46959 z m -0.75773,0.38421 -0.005,-1.07257 h -2.540011 v -0.34151 q 0,-0.4269 0.4269,-0.4269 h 2.342571 v -1.06723 h -2.982911 q -1.06723,0 -1.06723,1.06723 v 2.98825 h 1.28067 v -1.14727 z m -4.477021,0 -0.005,-1.07257 h -2.54001 v -0.34151 q 0,-0.4269 0.42689,-0.4269 h 2.34257 v -1.06723 h -2.98291 q -1.06723,0 -1.06723,1.06723 v 2.98825 h 1.28068 v -1.14727 z m -5.640313,1.15261 q 1.366053,-0.0694 1.398073,-1.05123 v -1.9637 q -0.005,-1.04589 -1.398073,-1.04589 h -1.3874 q -1.483452,0 -1.483452,1.06723 v 1.96904 q -0.02668,1.01921 1.462107,1.01921 z m -0.256135,-2.97758 q 0.368194,0 0.368194,0.41089 v 1.0779 q 0,0.40555 -0.421556,0.43756 l -0.864457,0.005 q -0.437565,-0.0107 -0.437565,-0.3842 v -1.15795 q 0.02668,-0.37887 0.426893,-0.40555 h 0.864457 z m -18.857606,1.82201 q 0.02613,-0.52906 0.398422,-1.06464 0.38536,-0.55518 0.816439,-0.91441 0.444143,-0.38536 1.018916,-0.6205 0.568242,-0.20247 1.214862,-0.32657 0.64662,-0.1241 1.378149,-0.16329 v 1.3063 q -0.03919,-0.0131 -0.07838,-0.0131 h -0.111034 q -0.163287,0 -0.418017,0.0327 -0.248197,0.0261 -0.60743,0.0849 -0.875223,0.16328 -0.875223,0.33964 0,0.0327 0.0065,0.0392 h 1.045043 q 1.058105,0 1.058105,0.79032 v 1.46306 q -0.0065,0.92094 -1.097294,0.92094 H 70.75366 v -1.29977 h 3.265756 v -0.57477 z m -0.653141,-3.08941 h -3.651116 q -1.306302,0 -1.306302,1.3063 v 3.65765 h 4.957418 v -1.3063 h -3.389855 v -0.52252 h 3.389855 V 348.187 h -3.389855 v -0.26126 q 0,-0.26126 0.26126,-0.26126 h 3.128595 z m -10.306717,3.08941 q 0.02613,-0.52906 0.398422,-1.06464 0.38536,-0.55518 0.816439,-0.91441 0.444143,-0.38536 1.018917,-0.6205 0.568241,-0.20247 1.214861,-0.32657 0.64662,-0.1241 1.378149,-0.16329 v 1.3063 q -0.03919,-0.0131 -0.07838,-0.0131 h -0.111036 q -0.163287,0 -0.418016,0.0327 -0.248198,0.0261 -0.607431,0.0849 -0.875223,0.16328 -0.875223,0.33964 0,0.0327 0.0065,0.0392 h 1.045042 q 1.058105,0 1.058105,0.79032 v 1.46306 q -0.0065,0.92094 -1.097294,0.92094 h -3.853593 v -1.29977 h 3.265756 v -0.57477 z m -0.65314,1.87454 v -1.3063 h -2.867334 q -0.522521,0 -0.522521,-0.52252 v -3.1286 h -1.567563 v 3.65112 q 0,1.3063 1.306302,1.3063 z m -8.615059,-4.95742 v 3.13513 q 0,0.52252 0.522521,0.52252 h 1.051574 v -3.67724 h 1.561031 v 4.98354 h -3.396387 q -1.306302,0 -1.306302,-1.3063 v -3.65765 z m -6.799299,-0.0131 v 4.97701 h 1.567563 v -1.56765 h 1.848419 q 1.280176,0 1.280176,-1.28671 v -0.8491 q 0,-1.28017 -1.280176,-1.28017 z m 3.141658,2.10315 h -1.567563 v -0.79032 h 1.045042 q 0.522521,0 0.522521,0.52252 z m -19.618223,0.6627 q 0.02551,-0.51656 0.389012,-1.03949 0.376258,-0.54207 0.797156,-0.89282 0.433653,-0.37625 0.99485,-0.60583 0.554821,-0.1977 1.186168,-0.31887 0.631348,-0.12116 1.345599,-0.15943 v 1.27545 q -0.03826,-0.0128 -0.07653,-0.0128 h -0.10841 q -0.159431,0 -0.408144,0.0319 -0.242335,0.0255 -0.593084,0.0829 -0.854551,0.15943 -0.854551,0.33161 0,0.0319 0.0064,0.0383 h 1.020359 q 1.033114,0 1.033114,0.77164 v 1.42851 q -0.0064,0.89919 -1.071378,0.89919 H 27.25226 v -1.26907 h 3.188623 v -0.5612 z m -5.235713,-3.02282 v 4.85947 H 23.6491 v -1.53054 h 1.80476 q 1.249941,0 1.249941,-1.25632 v -0.82904 q 0,-1.24994 -1.249941,-1.24994 z m 3.067455,2.05348 h -1.530539 v -0.77165 h 1.020359 q 0.51018,0 0.51018,0.51018 z m -3.571246,-2.0471 h -3.564881 q -1.275449,0 -1.275449,1.27545 v 3.57126 h 4.84033 v -1.27545 h -3.309791 v -0.51018 h 3.309791 v -1.27545 h -3.309791 v -0.25509 q 0,-0.25509 0.25509,-0.25509 h 3.054701 z m -5.350504,1.27545 v -1.27545 h -4.591617 v 1.27545 h 1.536916 v 4.20898 h 1.524162 v -4.20898 z m -9.8145708,1.74099 q 0.02551,-0.51656 0.389012,-1.03949 0.376258,-0.54207 0.797156,-0.89282 0.433653,-0.37625 0.994851,-0.60583 0.55482,-0.1977 1.186167,-0.31887 0.6313468,-0.12116 1.3455988,-0.15943 v 1.27545 q -0.03826,-0.0128 -0.07653,-0.0128 h -0.108413 q -0.159431,0 -0.408144,0.0319 -0.242335,0.0255 -0.5930838,0.0829 -0.85455,0.15943 -0.85455,0.33161 0,0.0319 0.0064,0.0383 h 1.0203588 q 1.033114,0 1.033114,0.77164 v 1.42851 q -0.0064,0.89919 -1.071378,0.89919 H 6.3476592 v -1.26907 h 3.188624 v -0.5612 z M 27.381519,199.75441 h -2.846838 q -1.018547,0 -1.018547,1.01854 v 2.85194 h 3.865385 v -1.01855 H 24.73839 v -0.40742 h 2.643129 v -1.01855 H 24.73839 v -0.20371 q 0,-0.20371 0.203709,-0.20371 h 2.43942 z m -4.272794,1.98616 v 2.39868 h -1.217164 v -0.51436 h -1.629675 q -0.942156,-0.0815 -1.018547,-1.01855 v -1.01855 q 0,-1.83338 2.037094,-1.83338 h 1.828292 v 1.01854 h -1.828292 q -0.814838,0 -0.814838,0.81484 v 0.61113 q 0,0.40742 0.42779,0.40742 h 0.998176 v -0.86577 z m -5.495058,2.39359 v -2.96397 q 0,-0.40742 -0.407419,-0.40742 h -0.81993 v 2.86721 h -1.217164 v -3.88576 h 2.648223 q 1.018547,0 1.018547,1.01855 v 3.37139 z m -2.857019,-4.37975 h -2.648222 q -1.018547,0 -1.018547,1.01854 v 2.85194 h 1.222257 v -1.21717 h 1.227349 v 1.22226 h 1.217163 z m -2.444512,1.63477 v -0.20881 q 0,-0.40742 0.407418,-0.40742 h 0.814838 v 0.61623 z m -5.0876378,2.23571 h 1.222256 v -1.13568 l 0.998176,-0.24445 v 1.89959 h 1.2426268 v -4.38994 H 9.4754872 v 1.42596 l -1.028733,0.29029 v -1.71625 h -1.222256 z m -0.40741,-3.87048 h -2.846839 q -1.018547,0 -1.018547,1.01854 v 1.01855 q 0,1.83339 2.037094,1.83339 h 1.828292 v -1.01855 h -1.828292 q -0.814838,0 -0.814838,-0.81484 v -0.61113 q 0,-0.40232 0.392141,-0.40232 h 2.250989 z m 66.4751828,83.49127 a 1.672612,1.672612 0 0 1 0,-2.36543 1.672612,1.672612 0 0 1 2.365428,0 1.672612,1.672612 0 0 1 0,2.36543 1.672612,1.672612 0 0 1 -2.365428,0 z m -29.082538,-2.3446 a 1.672612,1.672612 0 0 1 2.365435,1e-5 1.672612,1.672612 0 0 1 0,2.36542 1.672612,1.672612 0 0 1 -2.365428,0 1.672612,1.672612 0 0 1 -7e-6,-2.36543 z m -2.924726,-4.52252 a 1.672612,1.672612 0 0 1 2.284827,0.61222 1.672612,1.672612 0 0 1 -0.612217,2.28482 1.672612,1.672612 0 0 1 -2.284828,-0.61221 1.672612,1.672612 0 0 1 0.612218,-2.28483 z m -1.654553,-5.12539 a 1.672612,1.672612 0 0 1 2.048523,1.18271 1.672612,1.672612 0 0 1 -1.182716,2.04852 1.672612,1.672612 0 0 1 -2.048522,-1.18271 1.672612,1.672612 0 0 1 1.182715,-2.04852 z m -0.271611,-5.37896 a 1.672612,1.672612 0 0 1 1.672612,1.67262 1.672612,1.672612 0 0 1 -1.672612,1.67261 1.672612,1.672612 0 0 1 -1.672612,-1.67261 1.672612,1.672612 0 0 1 1.672612,-1.67262 z m 1.129812,-5.266 a 1.672612,1.672612 0 0 1 1.182714,2.04853 1.672612,1.672612 0 0 1 -2.048523,1.18271 1.672612,1.672612 0 0 1 -1.182716,-2.04852 1.672612,1.672612 0 0 1 2.048525,-1.18272 z m 2.454234,-4.79412 a 1.672612,1.672612 0 0 1 0.612219,2.28483 1.672612,1.672612 0 0 1 -2.284829,0.61222 1.672612,1.672612 0 0 1 -0.612219,-2.28483 1.672612,1.672612 0 0 1 2.284829,-0.61222 z m 3.611462,-3.99557 a 1.672612,1.672612 0 0 1 0,2.36543 1.672612,1.672612 0 0 1 -2.365435,1e-5 1.672612,1.672612 0 0 1 0,-2.36545 1.672612,1.672612 0 0 1 2.365435,1e-5 z m 4.522503,-2.92472 a 1.672612,1.672612 0 0 1 -0.612218,2.28482 1.672612,1.672612 0 0 1 -2.284828,-0.61221 1.672612,1.672612 0 0 1 0.612213,-2.28484 1.672612,1.672612 0 0 1 2.284833,0.61223 z m 5.125387,-1.65455 a 1.672612,1.672612 0 0 1 -1.182724,2.04852 1.672612,1.672612 0 0 1 -2.04852,-1.18271 1.672612,1.672612 0 0 1 1.182714,-2.04852 1.672612,1.672612 0 0 1 2.04853,1.18271 z m 20.701478,32.01086 a 1.672612,1.672612 0 0 1 -0.61222,-2.28483 1.672612,1.672612 0 0 1 2.28483,-0.61222 1.672612,1.672612 0 0 1 0.612219,2.28483 1.672612,1.672612 0 0 1 -2.284829,0.61222 z m 2.45426,-4.79414 a 1.672612,1.672612 0 0 1 -1.182716,-2.04852 1.672612,1.672612 0 0 1 2.048523,-1.18272 1.672612,1.672612 0 0 1 1.182715,2.04852 1.672612,1.672612 0 0 1 -2.048522,1.18272 z m 1.12979,-5.26598 a 1.672612,1.672612 0 0 1 -1.672612,-1.67261 1.672612,1.672612 0 0 1 1.672612,-1.67262 1.672612,1.672612 0 0 1 1.672612,1.67262 1.672612,1.672612 0 0 1 -1.672612,1.67261 z m -0.271629,-5.37898 a 1.672612,1.672612 0 0 1 -2.04852,-1.18272 1.672612,1.672612 0 0 1 1.182714,-2.04852 1.672612,1.672612 0 0 1 2.04852,1.18271 1.672612,1.672612 0 0 1 -1.182714,2.04853 z m -1.654541,-5.12538 a 1.672612,1.672612 0 0 1 -2.284828,-0.61222 1.672612,1.672612 0 0 1 0.612218,-2.28482 1.672612,1.672612 0 0 1 2.284827,0.61221 1.672612,1.672612 0 0 1 -0.612217,2.28483 z m -2.924717,-4.52249 a 1.672612,1.672612 0 0 1 -2.365428,0 1.672612,1.672612 0 0 1 0,-2.36543 1.672612,1.672612 0 0 1 2.365435,-1e-5 1.672612,1.672612 0 0 1 -7e-6,2.36544 z m -3.995563,-3.61143 a 1.672612,1.672612 0 0 1 -2.28483,0.61222 1.672612,1.672612 0 0 1 -0.612219,-2.28483 1.672612,1.672612 0 0 1 2.284829,-0.61222 1.672612,1.672612 0 0 1 0.61222,2.28483 z m -4.794126,-2.45427 a 1.672612,1.672612 0 0 1 -2.048522,1.18272 1.672612,1.672612 0 0 1 -1.182716,-2.04852 1.672612,1.672612 0 0 1 2.048523,-1.18272 1.672612,1.672612 0 0 1 1.182715,2.04852 z m -5.265986,-1.12981 a 1.672612,1.672612 0 0 1 -1.672612,1.67262 1.672612,1.672612 0 0 1 -1.672612,-1.67262 1.672612,1.672612 0 0 1 1.672612,-1.67261 1.672612,1.672612 0 0 1 1.672612,1.67261 z m 16.614679,95.4534 v -7.85442 q 0,-1.07965 -1.079647,-1.07965 h -2.172788 v 7.59801 h -3.225445 v -10.29713 h 7.017703 q 2.699117,0 2.699117,2.69912 v 8.93407 z m -10.796449,-1.34955 h 3.23894 v -10.25665 h -3.23894 z m -11.45771,-4.45355 -3.292922,1.29558 v -7.08518 h -3.225444 v 10.25664 h 3.468365 l 6.248454,-2.69911 v -7.55753 h -3.198453 z m -7.59799,4.45355 h -7.54403 q -2.699117,0 -2.699117,-2.69912 v -2.69912 q 0,-4.85841 5.398233,-4.85841 h 4.844914 v 2.69912 h -4.844914 q -2.159293,0 -2.159293,2.15929 v 1.61947 q 0,1.06615 1.03916,1.06615 h 5.965047 z m -5.506088,-99.10364 v -1.56644 h -5.639163 v 1.56644 h 1.887553 v 5.16923 h 1.871889 v -5.16923 z m -6.265724,-1.56644 h -4.378183 q -1.566435,0 -1.566435,1.56644 v 4.38601 h 5.944618 v -1.56643 h -4.064896 v -0.62658 h 4.064896 v -1.56643 h -4.064896 v -0.31329 q 0,-0.31328 0.313286,-0.31328 h 3.75161 z m -12.359153,3.70462 q 0.03133,-0.63441 0.477763,-1.27664 0.462098,-0.66574 0.979021,-1.09651 0.532588,-0.4621 1.221819,-0.74405 0.681399,-0.2428 1.456784,-0.39161 0.775385,-0.14881 1.652588,-0.19581 v 1.56644 q -0.04699,-0.0157 -0.09399,-0.0157 H 29.77361 q -0.195804,0 -0.501259,0.0392 -0.297622,0.0313 -0.728392,0.10182 -1.049511,0.19581 -1.049511,0.40727 0,0.0392 0.0078,0.047 h 1.253148 q 1.268812,0 1.268812,0.94769 v 1.75441 q -0.0078,1.10433 -1.315805,1.10433 h -4.620981 v -1.5586 h 3.916085 v -0.68923 z m -1.112154,0.56392 -0.0078,-1.57427 h -3.728113 v -0.50126 q 0,-0.62657 0.626573,-0.62657 h 3.438324 v -1.56644 h -4.378184 q -1.566435,0 -1.566435,1.56644 v 4.38601 h 1.879722 v -1.68391 z m -6.571178,0 -0.0078,-1.57427 h -3.728114 v -0.50126 q 0,-0.62657 0.626574,-0.62657 h 3.438323 v -1.56644 h -4.378184 q -1.566434,0 -1.566434,1.56644 v 4.38601 h 1.879721 v -1.68391 z m -8.2785948,1.69175 q 2.0050358,-0.10182 2.0520288,-1.54294 v -2.88224 q -0.0078,-1.53511 -2.0520288,-1.53511 h -2.036364 q -2.177344,0 -2.177344,1.56644 v 2.89007 q -0.03916,1.49594 2.146015,1.49594 z m -0.375944,-4.37036 q 0.54042,0 0.54042,0.60308 v 1.5821 q 0,0.59524 -0.618742,0.64224 l -1.268811,0.008 q -0.642238,-0.0157 -0.642238,-0.56392 v -1.69958 q 0.03916,-0.55608 0.626573,-0.59524 h 1.268812 z M 73.142393,203.98635 a 1.672612,1.672612 0 0 1 0,-2.36543 1.672612,1.672612 0 0 1 2.365428,0 1.672612,1.672612 0 0 1 0,2.36543 1.672612,1.672612 0 0 1 -2.365428,0 z m -29.082538,-2.3446 a 1.672612,1.672612 0 0 1 2.365428,0 1.672612,1.672612 0 0 1 0,2.36543 1.672612,1.672612 0 0 1 -2.365435,0 1.672612,1.672612 0 0 1 7e-6,-2.36543 z m -2.924726,-4.52251 a 1.672612,1.672612 0 0 1 2.284836,0.61222 1.672612,1.672612 0 0 1 -0.612221,2.28484 1.672612,1.672612 0 0 1 -2.284833,-0.61223 1.672612,1.672612 0 0 1 0.612218,-2.28483 z m -1.654553,-5.12537 a 1.672612,1.672612 0 0 1 2.04853,1.18271 1.672612,1.672612 0 0 1 -1.182721,2.04853 1.672612,1.672612 0 0 1 -2.048523,-1.18272 1.672612,1.672612 0 0 1 1.182714,-2.04852 z m -0.271623,-5.37896 a 1.672612,1.672612 0 0 1 1.672611,1.67261 1.672612,1.672612 0 0 1 -1.672611,1.67261 1.672612,1.672612 0 0 1 -1.672612,-1.67261 1.672612,1.672612 0 0 1 1.672612,-1.67261 z m 1.129806,-5.26602 a 1.672612,1.672612 0 0 1 1.182716,2.04853 1.672612,1.672612 0 0 1 -2.048525,1.18272 1.672612,1.672612 0 0 1 -1.182713,-2.04853 1.672612,1.672612 0 0 1 2.048522,-1.18272 z m 2.454258,-4.79412 a 1.672612,1.672612 0 0 1 0.612218,2.28483 1.672612,1.672612 0 0 1 -2.284833,0.61222 1.672612,1.672612 0 0 1 -0.612213,-2.28483 1.672612,1.672612 0 0 1 2.284828,-0.61222 z m 3.611427,-3.99558 a 1.672612,1.672612 0 0 1 0,2.36543 1.672612,1.672612 0 0 1 -2.365428,0 1.672612,1.672612 0 0 1 0,-2.36543 1.672612,1.672612 0 0 1 2.365428,0 z m 4.522518,-2.92471 a 1.672612,1.672612 0 0 1 -0.612218,2.28482 1.672612,1.672612 0 0 1 -2.284836,-0.61221 1.672612,1.672612 0 0 1 0.612221,-2.28484 1.672612,1.672612 0 0 1 2.284833,0.61223 z m 5.125392,-1.65454 a 1.672612,1.672612 0 0 1 -1.182714,2.04852 1.672612,1.672612 0 0 1 -2.04852,-1.18271 1.672612,1.672612 0 0 1 1.182714,-2.04852 1.672612,1.672612 0 0 1 2.04852,1.18271 z m 20.701465,32.01084 a 1.672612,1.672612 0 0 1 -0.61222,-2.28483 1.672612,1.672612 0 0 1 2.284835,-0.61222 1.672612,1.672612 0 0 1 0.612214,2.28483 1.672612,1.672612 0 0 1 -2.284829,0.61222 z m 2.454259,-4.79413 a 1.672612,1.672612 0 0 1 -1.182713,-2.04854 1.672612,1.672612 0 0 1 2.048523,-1.18271 1.672612,1.672612 0 0 1 1.182715,2.04852 1.672612,1.672612 0 0 1 -2.048525,1.18273 z m 1.129804,-5.26597 a 1.672612,1.672612 0 0 1 -1.672612,-1.67261 1.672612,1.672612 0 0 1 1.672612,-1.67261 1.672612,1.672612 0 0 1 1.672612,1.67261 1.672612,1.672612 0 0 1 -1.672612,1.67261 z m -0.271621,-5.379 a 1.672612,1.672612 0 0 1 -2.048523,-1.18272 1.672612,1.672612 0 0 1 1.182713,-2.04852 1.672612,1.672612 0 0 1 2.048521,1.18271 1.672612,1.672612 0 0 1 -1.182711,2.04853 z m -1.654553,-5.12535 a 1.672612,1.672612 0 0 1 -2.284832,-0.61222 1.672612,1.672612 0 0 1 0.612217,-2.28483 1.672612,1.672612 0 0 1 2.284837,0.61221 1.672612,1.672612 0 0 1 -0.612222,2.28484 z m -2.924711,-4.52253 a 1.672612,1.672612 0 0 1 -2.365428,0 1.672612,1.672612 0 0 1 -7e-6,-2.36543 1.672612,1.672612 0 0 1 2.365435,0 1.672612,1.672612 0 0 1 0,2.36543 z m -3.995562,-3.61143 a 1.672612,1.672612 0 0 1 -2.284828,0.61222 1.672612,1.672612 0 0 1 -0.612217,-2.28483 1.672612,1.672612 0 0 1 2.284827,-0.61222 1.672612,1.672612 0 0 1 0.612218,2.28483 z m -4.794139,-2.45426 a 1.672612,1.672612 0 0 1 -2.048523,1.18271 1.672612,1.672612 0 0 1 -1.182716,-2.04852 1.672612,1.672612 0 0 1 2.048523,-1.18271 1.672612,1.672612 0 0 1 1.182716,2.04852 z m -5.26598,-1.12978 a 1.672612,1.672612 0 0 1 -1.672612,1.67261 1.672612,1.672612 0 0 1 -1.672612,-1.67261 1.672612,1.672612 0 0 1 1.672612,-1.67262 1.672612,1.672612 0 0 1 1.672612,1.67262 z m -26.134226,1.23763 q 0.03133,-0.63441 0.477763,-1.27665 0.462098,-0.66573 0.979021,-1.0965 0.532588,-0.4621 1.221819,-0.74406 0.681399,-0.2428 1.456784,-0.39161 0.775385,-0.14881 1.652588,-0.1958 v 1.56643 q -0.04699,-0.0157 -0.09399,-0.0157 h -0.133147 q -0.195804,0 -0.501259,0.0392 -0.297622,0.0313 -0.728392,0.10182 -1.049511,0.1958 -1.049511,0.40727 0,0.0392 0.0078,0.047 h 1.253148 q 1.268812,0 1.268812,0.9477 v 1.7544 q -0.0078,1.10434 -1.315805,1.10434 H 35.17174 v -1.5586 h 3.916085 v -0.68923 z m -0.783205,-3.70462 h -4.378184 q -1.566434,0 -1.566434,1.56643 v 4.38602 h 5.944618 v -1.56644 h -4.064897 v -0.62657 h 4.064897 v -1.56643 h -4.064897 v -0.31329 q 0,-0.31329 0.313287,-0.31329 h 3.75161 z m -12.359153,3.70462 q 0.03133,-0.63441 0.477762,-1.27665 0.462098,-0.66573 0.979021,-1.0965 0.532588,-0.4621 1.221819,-0.74406 0.681399,-0.2428 1.456784,-0.39161 0.775385,-0.14881 1.652588,-0.1958 v 1.56643 q -0.04699,-0.0157 -0.09399,-0.0157 h -0.133147 q -0.195804,0 -0.501259,0.0392 -0.297622,0.0313 -0.728392,0.10182 -1.049511,0.1958 -1.049511,0.40727 0,0.0392 0.0078,0.047 h 1.253147 q 1.268812,0 1.268812,0.9477 v 1.7544 q -0.0078,1.10434 -1.315805,1.10434 H 22.02938 v -1.5586 h 3.916086 v -0.68923 z m -0.783204,2.24783 v -1.56644 h -3.438323 q -0.626574,0 -0.626574,-0.62657 v -3.75161 H 15.42691 v 4.37818 q 0,1.56644 1.566434,1.56644 z m -10.330626,-5.94462 v 3.75944 q 0,0.62658 0.626574,0.62658 h 1.260979 v -4.40952 h 1.871889 v 5.97595 h -4.072729 q -1.5664338,0 -1.5664338,-1.56643 v -4.38602 z m -8.1532818,-0.0157 v 6.71217 h 1.887553 v -2.62378 h 2.208673 q 1.535105,0 1.535105,-1.54294 v -1.01818 q 0,-0.77539 -0.375944,-1.1435 -0.368112,-0.36811 -1.143497,-0.36811 z m 3.767274,2.52195 h -1.879721 v -0.94769 h 1.253148 q 0.626573,0 0.626573,0.62658 z M 73.151388,125.48829 a 1.672612,1.672612 0 0 1 7e-6,-2.36544 1.672612,1.672612 0 0 1 2.365427,0 1.672612,1.672612 0 0 1 0,2.36543 1.672612,1.672612 0 0 1 -2.365434,1e-5 z m -29.082539,-2.3446 a 1.672612,1.672612 0 0 1 2.365435,0 1.672612,1.672612 0 0 1 -7e-6,2.36543 1.672612,1.672612 0 0 1 -2.365428,0 1.672612,1.672612 0 0 1 0,-2.36543 z m -2.92472,-4.52252 a 1.672612,1.672612 0 0 1 2.284827,0.61222 1.672612,1.672612 0 0 1 -0.612217,2.28483 1.672612,1.672612 0 0 1 -2.284828,-0.61222 1.672612,1.672612 0 0 1 0.612218,-2.28483 z m -1.654562,-5.12538 a 1.672612,1.672612 0 0 1 2.04853,1.18271 1.672612,1.672612 0 0 1 -1.182724,2.04853 1.672612,1.672612 0 0 1 -2.04852,-1.18272 1.672612,1.672612 0 0 1 1.182714,-2.04852 z m -0.271608,-5.37897 a 1.672612,1.672612 0 0 1 1.672612,1.67261 1.672612,1.672612 0 0 1 -1.672612,1.67261 1.672612,1.672612 0 0 1 -1.672612,-1.67261 1.672612,1.672612 0 0 1 1.672612,-1.67261 z m 1.129817,-5.26601 a 1.672612,1.672612 0 0 1 1.182716,2.04852 1.672612,1.672612 0 0 1 -2.048523,1.18272 1.672612,1.672612 0 0 1 -1.182715,-2.04852 1.672612,1.672612 0 0 1 2.048522,-1.18272 z m 2.454252,-4.794129 a 1.672612,1.672612 0 0 1 0.612213,2.284839 1.672612,1.672612 0 0 1 -2.284828,0.61222 1.672612,1.672612 0 0 1 -0.612226,-2.284839 1.672612,1.672612 0 0 1 2.284841,-0.61222 z m 3.611432,-3.99554 a 1.672612,1.672612 0 0 1 0,2.36543 1.672612,1.672612 0 0 1 -2.365435,1e-5 1.672612,1.672612 0 0 1 0,-2.36545 1.672612,1.672612 0 0 1 2.365435,1e-5 z m 4.522516,-2.92473 a 1.672612,1.672612 0 0 1 -0.612218,2.28483 1.672612,1.672612 0 0 1 -2.284828,-0.61222 1.672612,1.672612 0 0 1 0.612218,-2.284832 1.672612,1.672612 0 0 1 2.284828,0.612222 z m 5.125369,-1.654542 a 1.672612,1.672612 0 0 1 -1.182714,2.048522 1.672612,1.672612 0 0 1 -2.048521,-1.182722 1.672612,1.672612 0 0 1 1.182714,-2.04852 1.672612,1.672612 0 0 1 2.048521,1.18272 z m 20.701477,32.010851 a 1.672612,1.672612 0 0 1 -0.612218,-2.28483 1.672612,1.672612 0 0 1 2.284833,-0.61222 1.672612,1.672612 0 0 1 0.612212,2.28483 1.672612,1.672612 0 0 1 -2.284827,0.61222 z m 2.454264,-4.79414 a 1.672612,1.672612 0 0 1 -1.182716,-2.04852 1.672612,1.672612 0 0 1 2.048523,-1.18271 1.672612,1.672612 0 0 1 1.182716,2.04852 1.672612,1.672612 0 0 1 -2.048523,1.18271 z m 1.129798,-5.26599 a 1.672612,1.672612 0 0 1 -1.672612,-1.67261 1.672612,1.672612 0 0 1 1.672612,-1.67261 1.672612,1.672612 0 0 1 1.672612,1.67261 1.672612,1.672612 0 0 1 -1.672612,1.67261 z m -0.271628,-5.37896 a 1.672612,1.672612 0 0 1 -2.04852,-1.18272 1.672612,1.672612 0 0 1 1.182714,-2.04852 1.672612,1.672612 0 0 1 2.04852,1.18272 1.672612,1.672612 0 0 1 -1.182714,2.04852 z m -1.65453,-5.12538 a 1.672612,1.672612 0 0 1 -2.284842,-0.61222 1.672612,1.672612 0 0 1 0.612227,-2.284829 1.672612,1.672612 0 0 1 2.284827,0.61221 1.672612,1.672612 0 0 1 -0.612212,2.284839 z m -2.924721,-4.522509 a 1.672612,1.672612 0 0 1 -2.365428,0 1.672612,1.672612 0 0 1 0,-2.36542 1.672612,1.672612 0 0 1 2.365428,0 1.672612,1.672612 0 0 1 0,2.36542 z m -3.995565,-3.61143 a 1.672612,1.672612 0 0 1 -2.284836,0.61222 1.672612,1.672612 0 0 1 -0.612218,-2.28483 1.672612,1.672612 0 0 1 2.284828,-0.612222 1.672612,1.672612 0 0 1 0.612226,2.284832 z m -4.794138,-2.454252 a 1.672612,1.672612 0 0 1 -2.048522,1.182712 1.672612,1.672612 0 0 1 -1.182716,-2.048522 1.672612,1.672612 0 0 1 2.048523,-1.18271 1.672612,1.672612 0 0 1 1.182715,2.04852 z m -5.265984,-1.12982 a 1.672612,1.672612 0 0 1 -1.672612,1.67261 1.672612,1.672612 0 0 1 -1.672611,-1.67261 1.672612,1.672612 0 0 1 1.672611,-1.67261 1.672612,1.672612 0 0 1 1.672612,1.67261 z m -31.84344,10.335102 q 0.03133,-0.6344 0.477762,-1.27664 0.462099,-0.66574 0.979022,-1.09651 0.532588,-0.46209 1.221819,-0.74405 0.681398,-0.2428 1.456783,-0.39161 0.775385,-0.14881 1.652589,-0.19581 v 1.56644 q -0.04699,-0.0157 -0.09399,-0.0157 h -0.133147 q -0.195805,0 -0.501259,0.0392 -0.297623,0.0313 -0.728392,0.10181 -1.049511,0.19581 -1.049511,0.40728 0,0.0392 0.0078,0.047 h 1.253147 q 1.268812,0 1.268812,0.94769 v 1.754409 q -0.0078,1.10433 -1.315805,1.10433 h -4.620981 v -1.5586 h 3.916086 v -0.689229 z m -6.430206,-3.71245 v 5.968159 h 1.879722 v -1.879719 h 2.216504 q 1.535106,0 1.535106,-1.54294 v -1.01818 q 0,-1.53511 -1.535106,-1.53511 z m 3.767275,2.52196 h -1.879721 v -0.94769 h 1.253147 q 0.626574,0 0.626574,0.62657 z m -4.386002,-2.51413 h -4.378184 q -1.566434,0 -1.566434,1.56644 v 4.386009 h 5.944618 v -1.56643 h -4.064897 v -0.626569 h 4.064897 v -1.56644 h -4.064897 v -0.31328 q 0,-0.31329 0.313287,-0.31329 h 3.75161 z m -6.571183,1.56644 v -1.56644 h -5.639164 v 1.56644 h 1.887554 v 5.169229 h 1.871888 v -5.169229 z m -12.0536978,2.13818 q 0.03133,-0.6344 0.477762,-1.27664 0.462098,-0.66574 0.979021,-1.09651 0.532588,-0.46209 1.221819,-0.74405 0.681399,-0.2428 1.456784,-0.39161 0.775385,-0.14881 1.652588,-0.19581 v 1.56644 q -0.04699,-0.0157 -0.09399,-0.0157 h -0.133147 q -0.195804,0 -0.501259,0.0392 -0.297622,0.0313 -0.728392,0.10181 -1.049511,0.19581 -1.049511,0.40728 0,0.0392 0.0078,0.047 h 1.253148 q 1.268811,0 1.268811,0.94769 v 1.754409 q -0.0078,1.10433 -1.315804,1.10433 h -4.620945 v -1.5586 h 3.916085 V 99.545351 Z M 106.54069,81.841419 v -4.55833 q 0,-0.62657 -0.62657,-0.62657 h -1.26098 v 4.40951 h -1.87189 v -5.97595 h 4.07273 q 1.56643,0 1.56643,1.56644 v 5.1849 z m -6.26573,-0.78322 h 1.87972 v -5.95245 h -1.87972 z m -4.793261,-4.38602 v -1.56643 h -5.639167 v 1.56643 h 1.887557 v 5.16924 h 1.87189 v -5.16924 z m -12.053703,2.13819 q 0.03133,-0.63441 0.477763,-1.27665 0.462098,-0.66573 0.979021,-1.0965 0.532588,-0.4621 1.221819,-0.74406 0.681399,-0.2428 1.456784,-0.39161 0.775385,-0.14881 1.652588,-0.1958 v 1.56643 q -0.04699,-0.0157 -0.09399,-0.0157 h -0.133147 q -0.195804,0 -0.501259,0.0392 -0.297622,0.0313 -0.728392,0.10182 -1.049511,0.1958 -1.049511,0.40727 0,0.0392 0.0078,0.047 h 1.253148 q 1.268812,0 1.268812,0.9477 v 1.7544 q -0.0078,1.10434 -1.315805,1.10434 h -4.620981 v -1.5586 h 3.916085 v -0.68923 z m -2.66293,-1.19049 v -0.32112 q 0,-0.62658 -0.626573,-0.62658 h -1.253148 v 0.9477 z m -1.425455,1.58993 h -0.462098 v 1.85622 h -1.871889 v -5.96028 h 4.072729 q 1.582099,0 1.582099,1.56643 v 1.04951 q -0.03133,1.46462 -1.378462,1.46462 l 1.864056,2.65511 h -1.942378 z m -39.146196,2.63161 v -4.55833 q 0,-0.62657 -0.626573,-0.62657 h -1.26098 v 4.40951 h -1.871889 v -5.97595 h 4.072729 q 1.566434,0 1.566434,1.56644 v 5.1849 z m -6.265727,-0.78322 h 1.879722 v -5.95245 h -1.879722 z m -8.098441,-1.84839 h -0.462098 v 1.85622 h -1.879721 v -5.95245 h 1.887553 v 2.51413 h 0.46993 l 1.315805,-2.52196 h 1.973707 l -1.754406,3.28168 2.255665,3.45399 h -1.973707 z m -2.960547,1.84839 v -1.56644 h -3.438324 q -0.626573,0 -0.626573,-0.62657 v -3.75161 h -1.879721 v 4.37818 q 0,1.56644 1.566434,1.56644 z m -6.571179,0 h -4.378184 q -1.566434,0 -1.566434,-1.56644 v -1.56643 q 0,-2.81958 3.132869,-2.81958 h 2.811749 v 1.56643 h -2.811749 q -1.253148,0 -1.253148,1.25315 v 0.93986 q 0,0.61874 0.603077,0.61874 h 3.46182 z M 117.25476,12.318429 h -7.17906 q -2.56853,0 -2.56853,-2.5685396 v -7.19189 h 9.74759 v 2.56853 h -6.66535 v 1.02742 h 6.66535 v 2.56853 h -6.66535 v 0.52655 q 0,0.50086 0.51371,0.50086 h 6.15164 z M 103.60301,9.7498894 h 2.56853 v 2.5685396 h -2.56853 z m -1.02739,-7.19189 h -7.179051 q -2.56854,0 -2.56854,2.56853 v 2.56854 q 0,4.6233596 5.13707,4.6233596 h 4.610521 V 9.7498894 h -4.610521 q -2.05483,0 -2.05483,-2.05482 v -1.54112 q 0,-1.01457 0.98889,-1.01457 h 5.676461 z m -13.651745,7.19189 h 2.568534 v 2.5685396 h -2.568534 z m -10.27412,2.5813796 h 6.678188 q 2.542849,0 2.542849,-2.4914796 v -1.70807 q 0,-2.05483 -1.823659,-2.4658 v -1.07878 q 0,-2.05483 -2.157569,-2.05483 h -5.239809 z m 6.164481,-4.1096496 v 0.5137 q 0,1.02742 -1.027413,1.02742 h -2.054827 v -1.54112 z m -0.847616,-2.15757 h -2.247467 v -1.34848 h 1.502592 q 0.744875,0 0.744875,0.89898 z m -17.324715,0.21832 q 0.565077,0 1.502592,0.24401 0.963201,0.25686 0.963201,1.57965 0,1.30995 -0.886145,2.0676696 -0.423808,0.3596 -0.911829,0.66782 -0.488022,0.30822 -1.078784,0.53939 -1.117313,0.39813 -2.388737,0.64214 -1.271424,0.24401 -2.722646,0.30822 V 9.7627394 q 0.141269,0.0385 0.423808,0.0385 0.642134,0 1.952086,-0.24401 1.759446,-0.30822 1.759446,-0.68066 l -0.02569,-0.0514 H 63.17438 q -2.080512,0 -2.080512,-1.5668 v -2.86392 q 0.01284,-1.82366 2.170411,-1.82366 h 7.564332 v 2.55569 h -6.421335 v 1.15584 z m -10.774979,2.35021 q 0.603606,0 1.502593,-0.25685 0.9632,-0.2697 0.9632,-1.57965 0,-1.3228 -0.886144,-2.08051 -0.423808,-0.34675 -0.91183,-0.65498 -0.488021,-0.30822 -1.078784,-0.53939 -1.117312,-0.39812 -2.388737,-0.64213 -1.271424,-0.24402 -2.722646,-0.32107 v 2.56853 q 0.0899,-0.0257 0.166955,-0.0257 h 0.218326 q 0.308224,0 0.796245,0.0642 0.500864,0.0514 1.194368,0.16696 1.759446,0.32106 1.759446,0.6935 l -0.02569,0.0514 h -2.054827 q -2.080513,0 -2.080513,1.55396 v 2.8767596 q 0.01284,1.81082 2.170411,1.81082 h 7.564333 V 9.7627394 h -6.421335 v -1.13016 z M 39.492544,12.318429 h 7.204737 q 2.542849,0 2.542849,-2.5685396 v -7.19189 h -9.747586 v 2.56853 h 6.678188 v 1.02742 h -6.678188 v 2.56853 h 6.678188 v 0.52655 q 0,0.50086 -0.513707,0.50086 h -6.164481 z" />
    <rect
       style="fill:#000000;stroke-width:0.34417"
       id="rect1476"
       width="31.535221"
       height="23.799047"
       x="2.1068938"
       y="192.9525"
       ry="0.690723" />
    <g
       aria-label="16"
       id="text310"
       style="font-weight:bold;font-size:8.33343px;font-family:Moltors;-inkscape-font-specification:'Moltors Bold';text-align:center;text-anchor:middle;fill:#ffffff;stroke-width:0.393706"
       transform="translate(-0.10742628,-9.3591574)">
      <path
         d="m 98.879853,171.14487 h -1.503777 l -1.221819,-4.38601 H 93.24069 v 1.56643 h 1.503777 l 0.783217,2.81958 H 93.24069 v 1.56644 h 5.639163 z"
         style="stroke-width:0.393705"
         id="path785" />
      <path
         d="m 105.45104,166.75886 h -4.37819 q -1.566431,0 -1.566431,1.56643 v 4.38602 h 5.944621 v -2.27916 q 0,-1.48028 -2.02854,-1.48028 h -2.03636 v -0.31329 q 0,-0.31329 0.31329,-0.31329 h 3.75161 z m -1.90322,3.75944 v 0.62657 h -2.16168 v -0.62657 z"
         style="stroke-width:0.393705"
         id="path782" />
    </g>
    <g
       aria-label="Norm"
       id="text310-3"
       style="font-weight:bold;font-size:8.33343px;font-family:Moltors;-inkscape-font-specification:'Moltors Bold';text-align:center;text-anchor:middle;display:inline;fill:#ffffff;stroke-width:0.393706">
      <path
         d="m 91.63799,201.42712 v -3.75944 q 0,-0.62658 -0.626573,-0.62658 h -1.253148 v 5.16924 h -1.879721 v -6.73567 h 4.072729 q 1.566435,0 1.566435,1.56643 v 4.38602 z"
         style="stroke-width:0.393705"
         id="path779" />
      <path
         d="m 98.37365,201.45062 q 2.00504,-0.10182 2.05203,-1.54294 v -2.88224 q -0.008,-1.53511 -2.05203,-1.53511 h -2.036365 q -2.177343,0 -2.177343,1.56644 v 2.89007 q -0.03916,1.49594 2.146014,1.49594 z m -0.375945,-4.37036 q 0.54042,0 0.54042,0.60308 v 1.5821 q 0,0.59525 -0.618741,0.64224 l -1.268812,0.008 q -0.642238,-0.0157 -0.642238,-0.56392 v -1.69958 q 0.03916,-0.55608 0.626574,-0.59524 h 1.268811 z"
         style="stroke-width:0.393705"
         id="path776" />
      <path
         d="m 104.79602,198.00446 v -0.32112 q 0,-0.62657 -0.62657,-0.62657 h -1.25315 v 0.94769 z m -1.42546,1.58993 h -0.46209 v 1.85623 h -1.87189 v -5.96029 h 4.07273 q 1.5821,0 1.5821,1.56644 v 1.04951 q -0.0313,1.46462 -1.37847,1.46462 l 1.86406,2.6551 h -1.94238 z"
         style="stroke-width:0.393705"
         id="path773" />
      <path
         d="m 111.06175,201.44278 v -4.36252 h 0.0157 q 0.61875,0 0.61875,1.22966 v 3.91608 h 1.55077 v -3.91608 q 0,-2.81959 -2.81175,-2.81959 h -3.13287 v 5.95245 h 1.56643 v -4.36252 h 0.62658 v 4.36252 z"
         style="stroke-width:0.393705"
         id="path770" />
    </g>
    <g
       aria-label="32"
       id="text418"
       style="font-weight:bold;font-size:8.33343px;font-family:Moltors;-inkscape-font-specification:'Moltors Bold';text-align:center;text-anchor:middle;fill:#ffffff;stroke-width:0.393706">
      <path
         d="m 93.508383,120.78238 h 4.393848 q 1.55077,0 1.55077,-1.56644 v -4.38601 h -5.944618 v 1.56643 h 4.072729 v 0.62657 h -4.072729 v 1.56644 h 4.072729 v 0.32112 q 0,0.30545 -0.313287,0.30545 h -3.759442 z"
         style="stroke-width:0.393705"
         id="path791" />
      <path
         d="m 103.49439,118.53454 q 0.36811,0 0.91636,-0.15664 0.58741,-0.16448 0.58741,-0.96336 0,-0.80671 -0.54042,-1.26881 -0.25846,-0.21147 -0.55608,-0.39944 -0.29762,-0.18797 -0.6579,-0.32895 -0.6814,-0.2428 -1.45679,-0.39161 -0.77538,-0.14881 -1.66042,-0.1958 v 1.56643 q 0.0548,-0.0157 0.10182,-0.0157 h 0.13315 q 0.18797,0 0.48559,0.0392 0.30546,0.0313 0.7284,0.10181 1.073,0.19581 1.073,0.42294 l -0.0157,0.0313 h -1.25315 q -1.26881,0 -1.26881,0.94769 v 1.75441 q 0.008,1.10434 1.32364,1.10434 h 4.61315 v -1.55861 h -3.91609 v -0.68923 z"
         style="stroke-width:0.393705"
         id="path788" />
    </g>
    <g
       aria-label="XOR"
       id="text557"
       style="font-weight:bold;font-size:8.33343px;font-family:Moltors;-inkscape-font-specification:'Moltors Bold';text-align:center;text-anchor:middle;display:inline;fill:#ffffff;stroke-width:0.393706"
       transform="translate(-0.71798729,-9.9735558)">
      <path
         d="m 94.197049,251.04262 0.06266,-0.0705 0.54042,1.03385 h 1.965875 l -1.754407,-3.27385 2.286994,-3.54797 H 95.35621 l -1.347134,1.9737 -0.571748,-1.08867 h -1.965875 l 1.762238,3.28168 -2.294826,3.45399 h 2.005036 z"
         style="stroke-width:0.393705"
         id="path767" />
      <path
         d="m 101.62194,252.02947 q 1.01035,-0.047 1.52727,-0.42293 0.52476,-0.38378 0.52476,-1.12 v -2.88224 q -0.008,-1.53511 -2.05203,-1.53511 h -2.036366 q -2.177343,0 -2.177343,1.56644 v 2.93706 q 0,1.45678 2.146015,1.45678 z m -0.37595,-4.37035 q 0.54042,0 0.54042,0.60308 v 1.5821 q 0,0.58741 -0.61874,0.65007 h -1.268809 q -0.642238,-0.0157 -0.642238,-0.56392 v -1.69958 q 0.03916,-0.55608 0.626574,-0.59524 h 1.268813 z"
         style="stroke-width:0.393705"
         id="path764" />
      <path
         d="m 108.04431,248.58332 v -0.32112 q 0,-0.62657 -0.62657,-0.62657 h -1.25315 v 0.94769 z m -1.42546,1.58993 h -0.46209 v 1.85622 h -1.87189 v -5.96028 h 4.07273 q 1.58209,0 1.58209,1.56644 v 1.04951 q -0.0313,1.46461 -1.37846,1.46461 l 1.86406,2.65511 h -1.94238 z"
         style="stroke-width:0.393705"
         id="path761" />
    </g>
  </g>
  <g
     inkscape:groupmode="layer"
     id="layer1"
     inkscape:label="components"
     style="display:none">
    <circle
       inkscape:label="clockled"
       r="15.748212"
       cy="40.327038"
       cx="43.626041"
       id="circle66"
       style="display:inline;vector-effect:none;fill:#ff00ff;fill-opacity:1;fill-rule:evenodd;stroke:none;stroke-width:3.93705;stroke-linecap:butt;stroke-linejoin:miter;stroke-miterlimit:4;stroke-dasharray:none;stroke-dashoffset:0;stroke-opacity:1;paint-order:normal" />
    <circle
       inkscape:label="auxoutled"
       r="15.748212"
       cy="420.45679"
       cx="16.347601"
       id="circle66-6"
       style="display:inline;vector-effect:none;fill:#ff00ff;fill-opacity:1;fill-rule:evenodd;stroke:none;stroke-width:3.93705;stroke-linecap:butt;stroke-linejoin:miter;stroke-miterlimit:4;stroke-dasharray:none;stroke-dashoffset:0;stroke-opacity:1;paint-order:normal;shape-rendering:crispEdges" />
    <circle
       inkscape:label="mainoutled"
       r="15.748212"
       cy="420.62515"
       cx="104.21957"
       id="circle66-6-2"
       style="display:inline;vector-effect:none;fill:#ff00ff;fill-opacity:1;fill-rule:evenodd;stroke:none;stroke-width:3.93705;stroke-linecap:butt;stroke-linejoin:miter;stroke-miterlimit:4;stroke-dasharray:none;stroke-dashoffset:0;stroke-opacity:1;paint-order:normal;shape-rendering:crispEdges" />
    <circle
       inkscape:label="resetled"
       r="15.748212"
       cy="40.372906"
       cx="75.500748"
       id="circle66-3"
       style="display:inline;vector-effect:none;fill:#ff00ff;fill-opacity:1;fill-rule:evenodd;stroke:none;stroke-width:3.93705;stroke-linecap:butt;stroke-linejoin:miter;stroke-miterlimit:4;stroke-dasharray:none;stroke-dashoffset:0;stroke-opacity:1;paint-order:normal;shape-rendering:crispEdges" />
    <circle
       style="display:inline;vector-effect:none;fill:#ff0000;fill-opacity:1;fill-rule:evenodd;stroke:none;stroke-width:3.93705;stroke-linecap:butt;stroke-linejoin:miter;stroke-miterlimit:4;stroke-dasharray:none;stroke-dashoffset:0;stroke-opacity:1;paint-order:normal"
       id="path4954"
       cx="60.40472"
       cy="108.67335"
       r="15.748212"
       inkscape:label="steps" />
    <circle
       style="display:inline;vector-effect:none;fill:#ff0000;fill-opacity:1;fill-rule:evenodd;stroke:none;stroke-width:3.93705;stroke-linecap:butt;stroke-linejoin:miter;stroke-miterlimit:4;stroke-dasharray:none;stroke-dashoffset:0;stroke-opacity:1;paint-order:normal;shape-rendering:crispEdges"
       id="path4954-6"
       cx="59.703884"
       cy="187.71779"
       r="15.748212"
       inkscape:label="pulses" />
    <circle
       style="display:inline;vector-effect:none;fill:#ff0000;fill-opacity:1;fill-rule:evenodd;stroke:none;stroke-width:3.93705;stroke-linecap:butt;stroke-linejoin:miter;stroke-miterlimit:4;stroke-dasharray:none;stroke-dashoffset:0;stroke-opacity:1;paint-order:normal;shape-rendering:crispEdges"
       id="path4954-7"
       cx="59.886097"
       cy="266.99603"
       r="15.748212"
       inkscape:label="offset" />
    <circle
       r="15.748212"
       cy="371.99197"
       cx="19.513411"
       id="circle4956"
       style="display:inline;vector-effect:none;fill:#00ff00;fill-opacity:1;fill-rule:evenodd;stroke:none;stroke-width:3.93705;stroke-linecap:butt;stroke-linejoin:miter;stroke-miterlimit:4;stroke-dasharray:none;stroke-dashoffset:0;stroke-opacity:1;paint-order:normal"
       inkscape:label="stepscv" />
    <circle
       r="15.748212"
       cy="56.774601"
       cx="24.532513"
       id="circle4956-9"
       style="display:inline;vector-effect:none;fill:#00ff00;fill-opacity:1;fill-rule:evenodd;stroke:none;stroke-width:3.93705;stroke-linecap:butt;stroke-linejoin:miter;stroke-miterlimit:4;stroke-dasharray:none;stroke-dashoffset:0;stroke-opacity:1;paint-order:normal;shape-rendering:crispEdges"
       inkscape:label="clock" />
    <circle
       r="15.748212"
       cy="56.774601"
       cx="94.495445"
       id="circle4956-9-1"
       style="display:inline;vector-effect:none;fill:#00ff00;fill-opacity:1;fill-rule:evenodd;stroke:none;stroke-width:3.93705;stroke-linecap:butt;stroke-linejoin:miter;stroke-miterlimit:4;stroke-dasharray:none;stroke-dashoffset:0;stroke-opacity:1;paint-order:normal;shape-rendering:crispEdges"
       inkscape:label="reset" />
    <circle
       cy="371.99197"
       cx="61.388008"
       id="circle4956-5"
       style="display:inline;vector-effect:none;fill:#00ff00;fill-opacity:1;fill-rule:evenodd;stroke:none;stroke-width:3.93705;stroke-linecap:butt;stroke-linejoin:miter;stroke-miterlimit:4;stroke-dasharray:none;stroke-dashoffset:0;stroke-opacity:1;paint-order:normal"
       inkscape:label="pulsescv"
       r="15.748212" />
    <circle
       r="15.748212"
       cy="371.99197"
       cx="100.26032"
       id="circle4956-3"
       style="display:inline;vector-effect:none;fill:#00ff00;fill-opacity:1;fill-rule:evenodd;stroke:none;stroke-width:3.93705;stroke-linecap:butt;stroke-linejoin:miter;stroke-miterlimit:4;stroke-dasharray:none;stroke-dashoffset:0;stroke-opacity:1;paint-order:normal"
       inkscape:label="offsetcv" />
    <circle
       style="display:inline;vector-effect:none;fill:#0000ff;fill-opacity:1;fill-rule:evenodd;stroke:none;stroke-width:3.93705;stroke-linecap:butt;stroke-linejoin:miter;stroke-miterlimit:4;stroke-dasharray:none;stroke-dashoffset:0;stroke-opacity:1;paint-order:normal"
       id="circle4958"
       cx="24.005106"
       cy="446.87344"
       r="15.748212"
       inkscape:label="auxout" />
    <circle
       style="display:inline;vector-effect:none;fill:#0000ff;fill-opacity:1;fill-rule:evenodd;stroke:none;stroke-width:3.93705;stroke-linecap:butt;stroke-linejoin:miter;stroke-miterlimit:4;stroke-dasharray:none;stroke-dashoffset:0;stroke-opacity:1;paint-order:normal;shape-rendering:crispEdges"
       id="circle4958-5"
       cx="95.221649"
       cy="446.87344"
       r="15.748212"
       inkscape:label="mainout" />
    <rect
       style="display:inline;vector-effect:none;fill:#ff0000;fill-opacity:1;fill-rule:evenodd;stroke:none;stroke-width:0.783529;stroke-linecap:round;stroke-linejoin:miter;stroke-miterlimit:10;stroke-dasharray:none;stroke-dashoffset:0;stroke-opacity:1;paint-order:normal;shape-rendering:crispEdges"
       id="rect262182-2"
       width="18.690495"
       height="39.372185"
       x="90.914291"
       y="204.33206"
       inkscape:label="mode" />
    <rect
       style="display:inline;vector-effect:none;fill:#ff0000;fill-opacity:1;fill-rule:evenodd;stroke:none;stroke-width:0.783529;stroke-linecap:round;stroke-linejoin:miter;stroke-miterlimit:10;stroke-dasharray:none;stroke-dashoffset:0;stroke-opacity:1;paint-order:normal"
       id="rect262182"
       width="18.690495"
       height="39.372185"
       x="90.210991"
       y="124.38822"
       inkscape:label="numsteps" />
  </g>
</svg>
